<svg width="154" height="67" viewBox="0 0 154 67" fill="none" xmlns="http://www.w3.org/2000/svg">
<path d="M112.389 18.6181C99.4488 23.0681 100.061 31.059 102.169 43.9032C135.818 54.5751 135.025 14.0333 134.666 2.06101C132.607 5.46151 125.329 14.1681 112.389 18.6181Z" fill="#8E9F41" stroke="#8E9F41"/>
<path d="M109.253 39.3057L124.91 21.2686" stroke="white" stroke-linecap="round"/>
<path d="M127.554 29.3581C114.613 33.8081 115.225 41.799 117.334 54.6432C150.982 65.3151 150.19 24.7733 149.831 12.801C147.771 16.2015 140.494 24.9081 127.554 29.3581Z" fill="#375751"/>
<path d="M124.418 50.0457L140.075 32.0086" stroke="white" stroke-linecap="round"/>
<path d="M11.866 57.2245C10.238 57.2245 8.83 56.9385 7.642 56.3665C6.46867 55.7799 5.56667 54.9439 4.936 53.8585C4.30533 52.7732 3.99 51.4825 3.99 49.9865C3.99 48.4172 4.32 47.0312 4.98 45.8285C5.65467 44.6259 6.59333 43.6945 7.796 43.0345C9.01333 42.3745 10.414 42.0445 11.998 42.0445C12.9073 42.0445 13.7653 42.1472 14.572 42.3525C15.3933 42.5579 16.1193 42.8512 16.75 43.2325L15.98 45.8725C15.408 45.5205 14.77 45.2492 14.066 45.0585C13.362 44.8532 12.6727 44.7505 11.998 44.7505C11.03 44.7505 10.172 44.9632 9.424 45.3885C8.69067 45.7992 8.11867 46.3859 7.708 47.1485C7.312 47.8965 7.114 48.7692 7.114 49.7665C7.114 51.2332 7.554 52.3919 8.434 53.2425C9.32867 54.0785 10.546 54.4965 12.086 54.4965C12.702 54.4965 13.274 54.4525 13.802 54.3645V51.3285H11.954V48.7545H16.728V56.3665C15.2173 56.9385 13.5967 57.2245 11.866 57.2245ZM19.6425 45.5645H22.7445V47.4125H22.9205C23.3458 46.6645 23.7638 46.1145 24.1745 45.7625C24.5998 45.4105 25.1278 45.2345 25.7585 45.2345C26.0225 45.2345 26.2425 45.2639 26.4185 45.3225L26.0885 48.6665C25.7072 48.5639 25.3992 48.5125 25.1645 48.5125C24.8272 48.5125 24.5265 48.5785 24.2625 48.7105C24.0132 48.8425 23.7858 49.0185 23.5805 49.2385C23.3898 49.4585 23.1112 49.7959 22.7445 50.2505V56.8945H19.6425V45.5645ZM33.3229 57.2245C31.4895 57.2245 30.0449 56.6965 28.9889 55.6405C27.9475 54.5845 27.4269 53.1179 27.4269 51.2405C27.4269 50.0232 27.6542 48.9672 28.1089 48.0725C28.5635 47.1632 29.2015 46.4665 30.0229 45.9825C30.8589 45.4985 31.8342 45.2565 32.9489 45.2565C34.5915 45.2565 35.8529 45.7845 36.7329 46.8405C37.6129 47.8965 38.0529 49.4219 38.0529 51.4165C38.0529 51.7539 38.0455 52.0032 38.0309 52.1645H30.5509C30.6975 52.9419 31.0349 53.5359 31.5629 53.9465C32.0909 54.3425 32.8022 54.5405 33.6969 54.5405C34.2395 54.5405 34.8042 54.4745 35.3909 54.3425C35.9775 54.1959 36.4909 54.0052 36.9309 53.7705L37.4369 56.2565C36.8502 56.5645 36.1975 56.7992 35.4789 56.9605C34.7749 57.1365 34.0562 57.2245 33.3229 57.2245ZM35.0829 49.8325C35.0389 49.2019 34.8189 48.7032 34.4229 48.3365C34.0269 47.9552 33.4989 47.7645 32.8389 47.7645C32.2082 47.7645 31.6875 47.9479 31.2769 48.3145C30.8809 48.6812 30.6315 49.1872 30.5289 49.8325H35.0829ZM45.8268 57.2245C43.9934 57.2245 42.5488 56.6965 41.4928 55.6405C40.4514 54.5845 39.9308 53.1179 39.9308 51.2405C39.9308 50.0232 40.1581 48.9672 40.6128 48.0725C41.0674 47.1632 41.7054 46.4665 42.5268 45.9825C43.3628 45.4985 44.3381 45.2565 45.4528 45.2565C47.0954 45.2565 48.3568 45.7845 49.2368 46.8405C50.1168 47.8965 50.5568 49.4219 50.5568 51.4165C50.5568 51.7539 50.5494 52.0032 50.5348 52.1645H43.0548C43.2014 52.9419 43.5388 53.5359 44.0668 53.9465C44.5948 54.3425 45.3061 54.5405 46.2008 54.5405C46.7434 54.5405 47.3081 54.4745 47.8948 54.3425C48.4814 54.1959 48.9948 54.0052 49.4348 53.7705L49.9408 56.2565C49.3541 56.5645 48.7014 56.7992 47.9828 56.9605C47.2788 57.1365 46.5601 57.2245 45.8268 57.2245ZM47.5868 49.8325C47.5428 49.2019 47.3228 48.7032 46.9268 48.3365C46.5308 47.9552 46.0028 47.7645 45.3428 47.7645C44.7121 47.7645 44.1914 47.9479 43.7808 48.3145C43.3848 48.6812 43.1354 49.1872 43.0328 49.8325H47.5868ZM52.8773 45.5645H55.9133V47.5225C56.3826 46.7452 56.9253 46.1732 57.5413 45.8065C58.1573 45.4399 58.8759 45.2565 59.6973 45.2565C60.9146 45.2565 61.8679 45.6232 62.5573 46.3565C63.2466 47.0752 63.5913 48.0799 63.5913 49.3705V56.8945H60.4893V49.8545C60.4893 49.2679 60.3426 48.8132 60.0493 48.4905C59.7559 48.1532 59.3599 47.9845 58.8613 47.9845C58.2746 47.9845 57.7173 48.2045 57.1893 48.6445C56.6613 49.0845 56.2579 49.6419 55.9793 50.3165V56.8945H52.8773V45.5645ZM72.332 45.0145H68.328V42.2425H79.504V45.0145H75.544V56.8945H72.332V45.0145ZM85.1862 57.2245C83.3528 57.2245 81.9082 56.6965 80.8522 55.6405C79.8108 54.5845 79.2902 53.1179 79.2902 51.2405C79.2902 50.0232 79.5175 48.9672 79.9722 48.0725C80.4268 47.1632 81.0648 46.4665 81.8862 45.9825C82.7222 45.4985 83.6975 45.2565 84.8122 45.2565C86.4548 45.2565 87.7162 45.7845 88.5962 46.8405C89.4762 47.8965 89.9162 49.4219 89.9162 51.4165C89.9162 51.7539 89.9088 52.0032 89.8942 52.1645H82.4142C82.5608 52.9419 82.8982 53.5359 83.4262 53.9465C83.9542 54.3425 84.6655 54.5405 85.5602 54.5405C86.1028 54.5405 86.6675 54.4745 87.2542 54.3425C87.8408 54.1959 88.3542 54.0052 88.7942 53.7705L89.3002 56.2565C88.7135 56.5645 88.0608 56.7992 87.3422 56.9605C86.6382 57.1365 85.9195 57.2245 85.1862 57.2245ZM86.9462 49.8325C86.9022 49.2019 86.6822 48.7032 86.2862 48.3365C85.8902 47.9552 85.3622 47.7645 84.7022 47.7645C84.0715 47.7645 83.5508 47.9479 83.1402 48.3145C82.7442 48.6812 82.4948 49.1872 82.3922 49.8325H86.9462ZM95.6221 57.2245C94.4487 57.2245 93.5174 56.7259 92.8281 55.7285C92.1387 54.7312 91.7941 53.3745 91.7941 51.6585C91.7941 49.5759 92.3221 47.9919 93.3781 46.9065C94.4341 45.8065 95.9521 45.2565 97.9321 45.2565C99.0467 45.2565 100.352 45.4325 101.848 45.7845V56.8945H98.9001L98.9661 55.0905H98.8781C98.4967 55.7799 98.0274 56.3079 97.4701 56.6745C96.9274 57.0412 96.3114 57.2245 95.6221 57.2245ZM96.2821 54.5185C96.7367 54.5185 97.1841 54.2765 97.6241 53.7925C98.0641 53.3085 98.4747 52.6632 98.8561 51.8565V48.1605C98.3867 48.0285 97.9174 47.9625 97.4481 47.9625C96.5681 47.9625 95.9007 48.2632 95.4461 48.8645C95.0061 49.4659 94.7861 50.3532 94.7861 51.5265C94.7861 52.4505 94.9181 53.1839 95.1821 53.7265C95.4461 54.2545 95.8127 54.5185 96.2821 54.5185ZM104.848 45.5645H107.884V47.3245C108.779 45.9459 109.989 45.2565 111.514 45.2565C112.379 45.2565 113.113 45.4619 113.714 45.8725C114.33 46.2685 114.777 46.8405 115.056 47.5885C115.569 46.7819 116.141 46.1952 116.772 45.8285C117.417 45.4472 118.151 45.2565 118.972 45.2565C120.189 45.2565 121.135 45.6232 121.81 46.3565C122.499 47.0752 122.844 48.0799 122.844 49.3705V56.8945H119.742V49.8545C119.742 49.2679 119.595 48.8132 119.302 48.4905C119.023 48.1532 118.642 47.9845 118.158 47.9845C117.557 47.9845 116.999 48.2339 116.486 48.7325C115.973 49.2312 115.591 49.8692 115.342 50.6465V56.8945H112.24V49.8545C112.24 49.2825 112.093 48.8279 111.8 48.4905C111.507 48.1532 111.118 47.9845 110.634 47.9845C110.091 47.9845 109.578 48.1899 109.094 48.6005C108.625 48.9965 108.243 49.5612 107.95 50.2945V56.8945H104.848V45.5645Z" fill="#254CAC"/>
<path d="M7.642 56.3665L6.30036 59.0498L6.32038 59.0598L6.34055 59.0695L7.642 56.3665ZM4.936 53.8585L7.52988 52.3513L4.936 53.8585ZM4.98 45.8285L2.36357 44.3608L2.35673 44.373L2.35 44.3852L4.98 45.8285ZM7.796 43.0345L6.36613 40.3972L6.35941 40.4009L6.35271 40.4045L7.796 43.0345ZM14.572 42.3525L13.832 45.2598L13.8444 45.263L14.572 42.3525ZM16.75 43.2325L19.63 44.0725L20.2757 41.8586L18.3023 40.6653L16.75 43.2325ZM15.98 45.8725L14.4077 48.4275L17.7584 50.4895L18.86 46.7125L15.98 45.8725ZM14.066 45.0585L13.226 47.9385L13.2538 47.9466L13.2818 47.9542L14.066 45.0585ZM9.424 45.3885L10.8898 48.0061L10.8984 48.0013L10.9069 47.9964L9.424 45.3885ZM7.708 47.1485L5.06659 45.7262L5.06158 45.7355L5.05664 45.7449L7.708 47.1485ZM8.434 53.2425L6.34893 55.3995L6.3672 55.4172L6.38577 55.4345L8.434 53.2425ZM13.802 54.3645L14.2952 57.3237L16.802 56.9059V54.3645H13.802ZM13.802 51.3285H16.802V48.3285H13.802V51.3285ZM11.954 51.3285H8.954V54.3285H11.954V51.3285ZM11.954 48.7545V45.7545H8.954V48.7545H11.954ZM16.728 48.7545H19.728V45.7545H16.728V48.7545ZM16.728 56.3665L17.7903 59.1721L19.728 58.4385V56.3665H16.728ZM11.866 54.2245C10.5851 54.2245 9.64152 53.9996 8.94345 53.6635L6.34055 59.0695C8.01848 59.8774 9.89085 60.2245 11.866 60.2245V54.2245ZM8.98364 53.6833C8.30858 53.3457 7.85303 52.9074 7.52988 52.3513L2.34212 55.3658C3.2803 56.9803 4.62876 58.214 6.30036 59.0498L8.98364 53.6833ZM7.52988 52.3513C7.21213 51.8045 6.99 51.055 6.99 49.9865H0.99C0.99 51.9101 1.39854 53.7419 2.34212 55.3658L7.52988 52.3513ZM6.99 49.9865C6.99 48.8483 7.22578 47.972 7.61 47.2718L2.35 44.3852C1.41422 46.0904 0.99 47.9861 0.99 49.9865H6.99ZM7.59643 47.2963C7.99799 46.5805 8.5314 46.053 9.23929 45.6645L6.35271 40.4045C4.65527 41.3361 3.31134 42.6713 2.36357 44.3608L7.59643 47.2963ZM9.22587 45.6719C9.94452 45.2822 10.8408 45.0445 11.998 45.0445V39.0445C9.98722 39.0445 8.08215 39.4668 6.36613 40.3972L9.22587 45.6719ZM11.998 45.0445C12.6806 45.0445 13.2883 45.1214 13.832 45.2598L15.312 39.4452C14.2424 39.173 13.1341 39.0445 11.998 39.0445V45.0445ZM13.8444 45.263C14.4176 45.4063 14.8581 45.5944 15.1977 45.7997L18.3023 40.6653C17.3806 40.108 16.3691 39.7095 15.2996 39.4421L13.8444 45.263ZM13.87 42.3925L13.1 45.0325L18.86 46.7125L19.63 44.0725L13.87 42.3925ZM17.5523 43.3176C16.7152 42.8024 15.8082 42.4223 14.8502 42.1629L13.2818 47.9542C13.7318 48.0761 14.1008 48.2386 14.4077 48.4275L17.5523 43.3176ZM14.906 42.1785C13.9527 41.9005 12.9805 41.7505 11.998 41.7505V47.7505C12.3648 47.7505 12.7713 47.8059 13.226 47.9385L14.906 42.1785ZM11.998 41.7505C10.5763 41.7505 9.19534 42.0675 7.94109 42.7807L10.9069 47.9964C11.1487 47.8589 11.4837 47.7505 11.998 47.7505V41.7505ZM7.95819 42.771C6.71156 43.4691 5.73885 44.4777 5.06659 45.7262L10.3494 48.5708C10.4985 48.294 10.6698 48.1293 10.8898 48.0061L7.95819 42.771ZM5.05664 45.7449C4.39408 46.9964 4.114 48.3671 4.114 49.7665H10.114C10.114 49.1713 10.2299 48.7967 10.3594 48.5522L5.05664 45.7449ZM4.114 49.7665C4.114 51.8728 4.77013 53.8733 6.34893 55.3995L10.5191 51.0856C10.3379 50.9104 10.114 50.5935 10.114 49.7665H4.114ZM6.38577 55.4345C7.96935 56.9142 9.98997 57.4965 12.086 57.4965V51.4965C11.102 51.4965 10.688 51.2428 10.4822 51.0506L6.38577 55.4345ZM12.086 57.4965C12.8431 57.4965 13.582 57.4426 14.2952 57.3237L13.3088 51.4053C12.966 51.4625 12.5609 51.4965 12.086 51.4965V57.4965ZM16.802 54.3645V51.3285H10.802V54.3645H16.802ZM13.802 48.3285H11.954V54.3285H13.802V48.3285ZM14.954 51.3285V48.7545H8.954V51.3285H14.954ZM11.954 51.7545H16.728V45.7545H11.954V51.7545ZM13.728 48.7545V56.3665H19.728V48.7545H13.728ZM15.6657 53.5609C14.518 53.9955 13.2598 54.2245 11.866 54.2245V60.2245C13.9335 60.2245 15.9166 59.8816 17.7903 59.1721L15.6657 53.5609ZM19.6425 45.5645V42.5645H16.6425V45.5645H19.6425ZM22.7445 45.5645H25.7445V42.5645H22.7445V45.5645ZM22.7445 47.4125H19.7445V50.4125H22.7445V47.4125ZM22.9205 47.4125V50.4125H24.6657L25.5284 48.8954L22.9205 47.4125ZM24.1745 45.7625L22.2618 43.4513L22.2418 43.4679L22.2221 43.4848L24.1745 45.7625ZM26.4185 45.3225L29.404 45.6172L29.6392 43.2338L27.3672 42.4765L26.4185 45.3225ZM26.0885 48.6665L25.3086 51.5634L28.7264 52.4836L29.074 48.9612L26.0885 48.6665ZM24.2625 48.7105L22.9208 46.0273L22.8896 46.0428L22.8588 46.0592L24.2625 48.7105ZM23.5805 49.2385L21.3873 47.1916L21.3496 47.232L21.3134 47.2737L23.5805 49.2385ZM22.7445 50.2505L20.4092 48.3673L19.7445 49.1916V50.2505H22.7445ZM22.7445 56.8945V59.8945H25.7445V56.8945H22.7445ZM19.6425 56.8945H16.6425V59.8945H19.6425V56.8945ZM19.6425 48.5645H22.7445V42.5645H19.6425V48.5645ZM19.7445 45.5645V47.4125H25.7445V45.5645H19.7445ZM22.7445 50.4125H22.9205V44.4125H22.7445V50.4125ZM25.5284 48.8954C25.8715 48.292 26.0874 48.0741 26.1269 48.0403L22.2221 43.4848C21.4403 44.1549 20.8202 45.037 20.3126 45.9296L25.5284 48.8954ZM26.0872 48.0737C26.012 48.136 25.9229 48.1843 25.8382 48.2126C25.7585 48.2391 25.7233 48.2345 25.7585 48.2345V42.2345C24.5346 42.2345 23.3008 42.5915 22.2618 43.4513L26.0872 48.0737ZM25.7585 48.2345C25.7819 48.2345 25.7683 48.236 25.725 48.2302C25.6826 48.2246 25.5923 48.2094 25.4698 48.1686L27.3672 42.4765C26.7859 42.2827 26.2202 42.2345 25.7585 42.2345V48.2345ZM23.433 45.0279L23.103 48.3719L29.074 48.9612L29.404 45.6172L23.433 45.0279ZM26.8684 45.7697C26.3805 45.6383 25.781 45.5125 25.1645 45.5125V51.5125C25.1152 51.5125 25.0832 51.5099 25.0717 51.5088C25.0598 51.5077 25.0613 51.5074 25.0783 51.5102C25.1145 51.5162 25.189 51.5312 25.3086 51.5634L26.8684 45.7697ZM25.1645 45.5125C24.4283 45.5125 23.6573 45.659 22.9208 46.0273L25.6041 51.3938C25.3956 51.4981 25.226 51.5125 25.1645 51.5125V45.5125ZM22.8588 46.0592C22.2954 46.3574 21.8051 46.7439 21.3873 47.1916L25.7736 51.2855C25.7715 51.2878 25.761 51.2986 25.7415 51.3137C25.7218 51.329 25.6964 51.3459 25.6661 51.3619L22.8588 46.0592ZM21.3134 47.2737C21.0866 47.5354 20.7808 47.9066 20.4092 48.3673L25.0797 52.1338C25.4415 51.6851 25.693 51.3816 25.8476 51.2033L21.3134 47.2737ZM19.7445 50.2505V56.8945H25.7445V50.2505H19.7445ZM22.7445 53.8945H19.6425V59.8945H22.7445V53.8945ZM22.6425 56.8945V45.5645H16.6425V56.8945H22.6425ZM28.9889 55.6405L26.8528 57.747L26.8601 57.7544L26.8676 57.7619L28.9889 55.6405ZM28.1089 48.0725L30.7833 49.4317L30.7878 49.4229L30.7922 49.4142L28.1089 48.0725ZM30.0229 45.9825L28.5198 43.3863L28.5098 43.392L28.4998 43.3979L30.0229 45.9825ZM36.7329 46.8405L39.0375 44.92L36.7329 46.8405ZM38.0309 52.1645V55.1645H40.7705L41.0186 52.4361L38.0309 52.1645ZM30.5509 52.1645V49.1645H26.9319L27.6029 52.7208L30.5509 52.1645ZM31.5629 53.9465L29.7211 56.3146L29.7418 56.3307L29.7629 56.3465L31.5629 53.9465ZM35.3909 54.3425L36.0494 57.2694L36.084 57.2616L36.1185 57.253L35.3909 54.3425ZM36.9309 53.7705L39.8706 53.1722L39.0683 49.2306L35.5191 51.1235L36.9309 53.7705ZM37.4369 56.2565L38.8314 58.9127L40.8259 57.8656L40.3766 55.6582L37.4369 56.2565ZM35.4789 56.9605L34.8218 54.0334L34.7864 54.0413L34.7513 54.0501L35.4789 56.9605ZM35.0829 49.8325V52.8325H38.2995L38.0756 49.6237L35.0829 49.8325ZM34.4229 48.3365L32.3419 50.4975L32.3631 50.5179L32.3847 50.5378L34.4229 48.3365ZM31.2769 48.3145L29.2788 46.0767L29.2586 46.0948L29.2387 46.1132L31.2769 48.3145ZM30.5289 49.8325L27.5661 49.3612L27.0139 52.8325H30.5289V49.8325ZM33.3229 54.2245C32.0928 54.2245 31.4807 53.8898 31.1102 53.5192L26.8676 57.7619C28.609 59.5033 30.8863 60.2245 33.3229 60.2245V54.2245ZM31.125 53.5341C30.7745 53.1787 30.4269 52.5495 30.4269 51.2405H24.4269C24.4269 53.6863 25.1205 55.9903 26.8528 57.747L31.125 53.5341ZM30.4269 51.2405C30.4269 50.3962 30.5835 49.8248 30.7833 49.4317L25.4344 46.7134C24.7249 48.1096 24.4269 49.6502 24.4269 51.2405H30.4269ZM30.7922 49.4142C31.0061 48.9864 31.2567 48.7376 31.546 48.5671L28.4998 43.3979C27.1464 44.1955 26.121 45.34 25.4256 46.7309L30.7922 49.4142ZM31.526 48.5788C31.8389 48.3977 32.2797 48.2565 32.9489 48.2565V42.2565C31.3887 42.2565 29.8789 42.5994 28.5198 43.3863L31.526 48.5788ZM32.9489 48.2565C33.893 48.2565 34.2305 48.5239 34.4282 48.7611L39.0375 44.92C37.4752 43.0452 35.2901 42.2565 32.9489 42.2565V48.2565ZM34.4282 48.7611C34.6945 49.0806 35.0529 49.8149 35.0529 51.4165H41.0529C41.0529 49.0289 40.5312 46.7124 39.0375 44.92L34.4282 48.7611ZM35.0529 51.4165C35.0529 51.5653 35.0512 51.6812 35.0487 51.7683C35.046 51.8606 35.0429 51.8965 35.0432 51.8929L41.0186 52.4361C41.0462 52.1321 41.0529 51.7696 41.0529 51.4165H35.0529ZM38.0309 49.1645H30.5509V55.1645H38.0309V49.1645ZM27.6029 52.7208C27.859 54.0782 28.5135 55.3754 29.7211 56.3146L33.4047 51.5785C33.4283 51.5968 33.4529 51.6199 33.4757 51.6463C33.4984 51.6727 33.5137 51.6959 33.5226 51.7116C33.5407 51.7436 33.5204 51.7223 33.4989 51.6083L27.6029 52.7208ZM29.7629 56.3465C30.9669 57.2495 32.381 57.5405 33.6969 57.5405V51.5405C33.4661 51.5405 33.3422 51.5145 33.2968 51.5019C33.2581 51.4911 33.295 51.4956 33.3629 51.5465L29.7629 56.3465ZM33.6969 57.5405C34.4834 57.5405 35.2696 57.4448 36.0494 57.2694L34.7323 51.4157C34.3389 51.5042 33.9957 51.5405 33.6969 51.5405V57.5405ZM36.1185 57.253C36.8946 57.0589 37.6462 56.789 38.3426 56.4176L35.5191 51.1235C35.3356 51.2213 35.0605 51.3328 34.6633 51.4321L36.1185 57.253ZM33.9912 54.3689L34.4972 56.8549L40.3766 55.6582L39.8706 53.1722L33.9912 54.3689ZM36.0424 53.6003C35.7128 53.7733 35.312 53.9233 34.8218 54.0334L36.136 59.8877C37.0831 59.6751 37.9876 59.3557 38.8314 58.9127L36.0424 53.6003ZM34.7513 54.0501C34.2878 54.166 33.8135 54.2245 33.3229 54.2245V60.2245C34.2989 60.2245 35.262 60.1071 36.2065 59.871L34.7513 54.0501ZM38.0756 49.6237C37.9882 48.3711 37.5119 47.1082 36.4611 46.1352L32.3847 50.5378C32.2789 50.4399 32.1938 50.3182 32.1401 50.1965C32.0898 50.0823 32.0885 50.0175 32.0902 50.0413L38.0756 49.6237ZM36.5038 46.1756C35.4399 45.1511 34.1094 44.7645 32.8389 44.7645V50.7645C32.8812 50.7645 32.8255 50.7706 32.7109 50.7292C32.5871 50.6845 32.4541 50.6055 32.3419 50.4975L36.5038 46.1756ZM32.8389 44.7645C31.5857 44.7645 30.3191 45.1479 29.2788 46.0767L33.2749 50.5523C33.1874 50.6305 33.0797 50.6937 32.9718 50.7317C32.8699 50.7676 32.8152 50.7645 32.8389 50.7645V44.7645ZM29.2387 46.1132C28.2518 47.027 27.7515 48.1963 27.5661 49.3612L33.4916 50.3039C33.503 50.2322 33.5112 50.2396 33.4839 50.295C33.4538 50.3562 33.3985 50.4386 33.3151 50.5158L29.2387 46.1132ZM30.5289 52.8325H35.0829V46.8325H30.5289V52.8325ZM41.4928 55.6405L39.3567 57.747L39.364 57.7544L39.3715 57.7619L41.4928 55.6405ZM40.6128 48.0725L43.2872 49.4317L43.2917 49.4229L43.2961 49.4142L40.6128 48.0725ZM42.5268 45.9825L41.0237 43.3863L41.0137 43.392L41.0037 43.3979L42.5268 45.9825ZM49.2368 46.8405L51.5414 44.92L49.2368 46.8405ZM50.5348 52.1645V55.1645H53.2744L53.5225 52.4361L50.5348 52.1645ZM43.0548 52.1645V49.1645H39.4358L40.1068 52.7208L43.0548 52.1645ZM44.0668 53.9465L42.225 56.3146L42.2457 56.3307L42.2668 56.3465L44.0668 53.9465ZM47.8948 54.3425L48.5533 57.2694L48.588 57.2616L48.6224 57.253L47.8948 54.3425ZM49.4348 53.7705L52.3745 53.1722L51.5722 49.2306L48.023 51.1235L49.4348 53.7705ZM49.9408 56.2565L51.3353 58.9127L53.3298 57.8656L52.8805 55.6582L49.9408 56.2565ZM47.9828 56.9605L47.3257 54.0334L47.2903 54.0413L47.2552 54.0501L47.9828 56.9605ZM47.5868 49.8325V52.8325H50.8034L50.5795 49.6237L47.5868 49.8325ZM46.9268 48.3365L44.8459 50.4975L44.867 50.5179L44.8886 50.5378L46.9268 48.3365ZM43.7808 48.3145L41.7827 46.0767L41.7625 46.0948L41.7426 46.1132L43.7808 48.3145ZM43.0328 49.8325L40.07 49.3612L39.5178 52.8325H43.0328V49.8325ZM45.8268 54.2245C44.5967 54.2245 43.9846 53.8898 43.6141 53.5192L39.3715 57.7619C41.1129 59.5033 43.3902 60.2245 45.8268 60.2245V54.2245ZM43.6289 53.5341C43.2785 53.1787 42.9308 52.5495 42.9308 51.2405H36.9308C36.9308 53.6863 37.6244 55.9903 39.3567 57.747L43.6289 53.5341ZM42.9308 51.2405C42.9308 50.3962 43.0875 49.8248 43.2872 49.4317L37.9383 46.7134C37.2288 48.1096 36.9308 49.6502 36.9308 51.2405H42.9308ZM43.2961 49.4142C43.51 48.9864 43.7606 48.7376 44.0499 48.5671L41.0037 43.3979C39.6503 44.1955 38.6249 45.34 37.9295 46.7309L43.2961 49.4142ZM44.0299 48.5788C44.3428 48.3977 44.7836 48.2565 45.4528 48.2565V42.2565C43.8926 42.2565 42.3828 42.5994 41.0237 43.3863L44.0299 48.5788ZM45.4528 48.2565C46.3969 48.2565 46.7344 48.5239 46.9321 48.7611L51.5414 44.92C49.9791 43.0452 47.794 42.2565 45.4528 42.2565V48.2565ZM46.9321 48.7611C47.1984 49.0806 47.5568 49.8149 47.5568 51.4165H53.5568C53.5568 49.0289 53.0351 46.7124 51.5414 44.92L46.9321 48.7611ZM47.5568 51.4165C47.5568 51.5653 47.5551 51.6812 47.5526 51.7683C47.5499 51.8606 47.5468 51.8965 47.5471 51.8929L53.5225 52.4361C53.5501 52.1321 53.5568 51.7696 53.5568 51.4165H47.5568ZM50.5348 49.1645H43.0548V55.1645H50.5348V49.1645ZM40.1068 52.7208C40.3629 54.0782 41.0174 55.3754 42.225 56.3146L45.9086 51.5785C45.9322 51.5968 45.9568 51.6199 45.9796 51.6463C46.0023 51.6727 46.0176 51.6959 46.0265 51.7116C46.0447 51.7436 46.0243 51.7223 46.0028 51.6083L40.1068 52.7208ZM42.2668 56.3465C43.4708 57.2495 44.8849 57.5405 46.2008 57.5405V51.5405C45.9701 51.5405 45.8461 51.5145 45.8008 51.5019C45.762 51.4911 45.7989 51.4956 45.8668 51.5465L42.2668 56.3465ZM46.2008 57.5405C46.9873 57.5405 47.7735 57.4448 48.5533 57.2694L47.2362 51.4157C46.8428 51.5042 46.4996 51.5405 46.2008 51.5405V57.5405ZM48.6224 57.253C49.3985 57.0589 50.1501 56.789 50.8465 56.4176L48.023 51.1235C47.8395 51.2213 47.5644 51.3328 47.1672 51.4321L48.6224 57.253ZM46.4951 54.3689L47.0011 56.8549L52.8805 55.6582L52.3745 53.1722L46.4951 54.3689ZM48.5463 53.6003C48.2167 53.7733 47.8159 53.9233 47.3257 54.0334L48.6399 59.8877C49.587 59.6751 50.4915 59.3557 51.3353 58.9127L48.5463 53.6003ZM47.2552 54.0501C46.7917 54.166 46.3174 54.2245 45.8268 54.2245V60.2245C46.8028 60.2245 47.7659 60.1071 48.7104 59.871L47.2552 54.0501ZM50.5795 49.6237C50.4921 48.3711 50.0158 47.1082 48.965 46.1352L44.8886 50.5378C44.7828 50.4399 44.6977 50.3182 44.644 50.1965C44.5937 50.0823 44.5924 50.0175 44.5941 50.0413L50.5795 49.6237ZM49.0077 46.1756C47.9438 45.1511 46.6133 44.7645 45.3428 44.7645V50.7645C45.3851 50.7645 45.3294 50.7706 45.2148 50.7292C45.091 50.6845 44.958 50.6055 44.8459 50.4975L49.0077 46.1756ZM45.3428 44.7645C44.0896 44.7645 42.823 45.1479 41.7827 46.0767L45.7788 50.5523C45.6913 50.6305 45.5836 50.6937 45.4757 50.7317C45.3738 50.7676 45.3191 50.7645 45.3428 50.7645V44.7645ZM41.7426 46.1132C40.7558 47.027 40.2554 48.1963 40.07 49.3612L45.9955 50.3039C46.0069 50.2322 46.0151 50.2396 45.9878 50.295C45.9577 50.3562 45.9024 50.4386 45.819 50.5158L41.7426 46.1132ZM43.0328 52.8325H47.5868V46.8325H43.0328V52.8325ZM52.8773 45.5645V42.5645H49.8773V45.5645H52.8773ZM55.9133 45.5645H58.9133V42.5645H55.9133V45.5645ZM55.9133 47.5225H52.9133V58.2955L58.4815 49.0731L55.9133 47.5225ZM57.5413 45.8065L59.0757 48.3844V48.3844L57.5413 45.8065ZM62.5573 46.3565L60.3714 48.4113L60.3817 48.4223L60.3922 48.4332L62.5573 46.3565ZM63.5913 56.8945V59.8945H66.5913V56.8945H63.5913ZM60.4893 56.8945H57.4893V59.8945H60.4893V56.8945ZM60.0493 48.4905L57.7854 50.4591L57.8072 50.484L57.8294 50.5085L60.0493 48.4905ZM57.1893 48.6445L55.2687 46.3399L57.1893 48.6445ZM55.9793 50.3165L53.2065 49.1713L52.9793 49.7214V50.3165H55.9793ZM55.9793 56.8945V59.8945H58.9793V56.8945H55.9793ZM52.8773 56.8945H49.8773V59.8945H52.8773V56.8945ZM52.8773 48.5645H55.9133V42.5645H52.8773V48.5645ZM52.9133 45.5645V47.5225H58.9133V45.5645H52.9133ZM58.4815 49.0731C58.7623 48.6079 58.9817 48.4404 59.0757 48.3844L56.0068 43.2287C54.8688 43.906 54.0029 44.8825 53.3451 45.9719L58.4815 49.0731ZM59.0757 48.3844C59.1632 48.3323 59.336 48.2565 59.6973 48.2565V42.2565C58.4159 42.2565 57.1513 42.5474 56.0068 43.2287L59.0757 48.3844ZM59.6973 48.2565C60.0067 48.2565 60.1743 48.3031 60.2483 48.3316C60.3105 48.3555 60.3404 48.3783 60.3714 48.4113L64.7431 44.3018C63.3703 42.8413 61.5554 42.2565 59.6973 42.2565V48.2565ZM60.3922 48.4332C60.4012 48.4426 60.5913 48.6163 60.5913 49.3705H66.5913C66.5913 47.5434 66.092 45.7078 64.7223 44.2799L60.3922 48.4332ZM60.5913 49.3705V56.8945H66.5913V49.3705H60.5913ZM63.5913 53.8945H60.4893V59.8945H63.5913V53.8945ZM63.4893 56.8945V49.8545H57.4893V56.8945H63.4893ZM63.4893 49.8545C63.4893 48.7832 63.2163 47.5145 62.2691 46.4725L57.8294 50.5085C57.6621 50.3245 57.5694 50.1347 57.5241 49.9945C57.4825 49.8654 57.4893 49.8054 57.4893 49.8545H63.4893ZM62.3131 46.522C61.3802 45.4492 60.116 44.9845 58.8613 44.9845V50.9845C58.77 50.9845 58.5846 50.9682 58.3567 50.8711C58.1204 50.7705 57.9251 50.6196 57.7854 50.4591L62.3131 46.522ZM58.8613 44.9845C57.456 44.9845 56.2387 45.5315 55.2687 46.3399L59.1098 50.9492C59.1638 50.9042 59.1633 50.9169 59.1048 50.94C59.076 50.9514 59.0382 50.9632 58.9933 50.9718C58.9483 50.9805 58.9034 50.9845 58.8613 50.9845V44.9845ZM55.2687 46.3399C54.3436 47.1108 53.6591 48.0754 53.2065 49.1713L58.7521 51.4618C58.8568 51.2083 58.9789 51.0583 59.1098 50.9492L55.2687 46.3399ZM52.9793 50.3165V56.8945H58.9793V50.3165H52.9793ZM55.9793 53.8945H52.8773V59.8945H55.9793V53.8945ZM55.8773 56.8945V45.5645H49.8773V56.8945H55.8773ZM72.332 45.0145H75.332V42.0145H72.332V45.0145ZM68.328 45.0145H65.328V48.0145H68.328V45.0145ZM68.328 42.2425V39.2425H65.328V42.2425H68.328ZM79.504 42.2425H82.504V39.2425H79.504V42.2425ZM79.504 45.0145V48.0145H82.504V45.0145H79.504ZM75.544 45.0145V42.0145H72.544V45.0145H75.544ZM75.544 56.8945V59.8945H78.544V56.8945H75.544ZM72.332 56.8945H69.332V59.8945H72.332V56.8945ZM72.332 42.0145H68.328V48.0145H72.332V42.0145ZM71.328 45.0145V42.2425H65.328V45.0145H71.328ZM68.328 45.2425H79.504V39.2425H68.328V45.2425ZM76.504 42.2425V45.0145H82.504V42.2425H76.504ZM79.504 42.0145H75.544V48.0145H79.504V42.0145ZM72.544 45.0145V56.8945H78.544V45.0145H72.544ZM75.544 53.8945H72.332V59.8945H75.544V53.8945ZM75.332 56.8945V45.0145H69.332V56.8945H75.332ZM80.8522 55.6405L78.7161 57.747L78.7234 57.7544L78.7308 57.7619L80.8522 55.6405ZM79.9722 48.0725L82.6466 49.4317L82.6511 49.4229L82.6554 49.4142L79.9722 48.0725ZM81.8862 45.9825L80.383 43.3863L80.373 43.392L80.3631 43.3979L81.8862 45.9825ZM88.5962 46.8405L90.9008 44.92L88.5962 46.8405ZM89.8942 52.1645V55.1645H92.6338L92.8818 52.4361L89.8942 52.1645ZM82.4142 52.1645V49.1645H78.7952L79.4662 52.7208L82.4142 52.1645ZM83.4262 53.9465L81.5843 56.3146L81.6051 56.3307L81.6262 56.3465L83.4262 53.9465ZM87.2542 54.3425L87.9127 57.2694L87.9473 57.2616L87.9818 57.253L87.2542 54.3425ZM88.7942 53.7705L91.7339 53.1722L90.9316 49.2306L87.3824 51.1235L88.7942 53.7705ZM89.3002 56.2565L90.6947 58.9127L92.6892 57.8656L92.2399 55.6582L89.3002 56.2565ZM87.3422 56.9605L86.685 54.0334L86.6497 54.0413L86.6145 54.0501L87.3422 56.9605ZM86.9462 49.8325V52.8325H90.1628L89.9389 49.6237L86.9462 49.8325ZM86.2862 48.3365L84.2052 50.4975L84.2264 50.5179L84.2479 50.5378L86.2862 48.3365ZM83.1402 48.3145L81.1421 46.0767L81.1219 46.0948L81.1019 46.1132L83.1402 48.3145ZM82.3922 49.8325L79.4294 49.3612L78.8772 52.8325H82.3922V49.8325ZM85.1862 54.2245C83.956 54.2245 83.344 53.8898 82.9735 53.5192L78.7308 57.7619C80.4723 59.5033 82.7496 60.2245 85.1862 60.2245V54.2245ZM82.9883 53.5341C82.6378 53.1787 82.2902 52.5495 82.2902 51.2405H76.2902C76.2902 53.6863 76.9838 55.9903 78.7161 57.747L82.9883 53.5341ZM82.2902 51.2405C82.2902 50.3962 82.4468 49.8248 82.6466 49.4317L77.2977 46.7134C76.5882 48.1096 76.2902 49.6502 76.2902 51.2405H82.2902ZM82.6554 49.4142C82.8693 48.9864 83.12 48.7376 83.4092 48.5671L80.3631 43.3979C79.0096 44.1955 77.9843 45.34 77.2889 46.7309L82.6554 49.4142ZM83.3893 48.5788C83.7021 48.3977 84.143 48.2565 84.8122 48.2565V42.2565C83.252 42.2565 81.7422 42.5994 80.383 43.3863L83.3893 48.5788ZM84.8122 48.2565C85.7563 48.2565 86.0938 48.5239 86.2915 48.7611L90.9008 44.92C89.3385 43.0452 87.1534 42.2565 84.8122 42.2565V48.2565ZM86.2915 48.7611C86.5578 49.0806 86.9162 49.8149 86.9162 51.4165H92.9162C92.9162 49.0289 92.3945 46.7124 90.9008 44.92L86.2915 48.7611ZM86.9162 51.4165C86.9162 51.5653 86.9145 51.6812 86.912 51.7683C86.9092 51.8606 86.9062 51.8965 86.9065 51.8929L92.8818 52.4361C92.9095 52.1321 92.9162 51.7696 92.9162 51.4165H86.9162ZM89.8942 49.1645H82.4142V55.1645H89.8942V49.1645ZM79.4662 52.7208C79.7223 54.0782 80.3768 55.3754 81.5843 56.3146L85.268 51.5785C85.2916 51.5968 85.3162 51.6199 85.339 51.6463C85.3617 51.6727 85.3769 51.6959 85.3858 51.7116C85.404 51.7436 85.3837 51.7223 85.3621 51.6083L79.4662 52.7208ZM81.6262 56.3465C82.8302 57.2495 84.2442 57.5405 85.5602 57.5405V51.5405C85.3294 51.5405 85.2055 51.5145 85.1601 51.5019C85.1214 51.4911 85.1583 51.4956 85.2262 51.5465L81.6262 56.3465ZM85.5602 57.5405C86.3467 57.5405 87.1328 57.4448 87.9127 57.2694L86.5956 51.4157C86.2021 51.5042 85.8589 51.5405 85.5602 51.5405V57.5405ZM87.9818 57.253C88.7579 57.0589 89.5094 56.789 90.2059 56.4176L87.3824 51.1235C87.1989 51.2213 86.9237 51.3328 86.5266 51.4321L87.9818 57.253ZM85.8544 54.3689L86.3604 56.8549L92.2399 55.6582L91.7339 53.1722L85.8544 54.3689ZM87.9057 53.6003C87.5761 53.7733 87.1753 53.9233 86.685 54.0334L87.9993 59.8877C88.9463 59.6751 89.8509 59.3557 90.6947 58.9127L87.9057 53.6003ZM86.6145 54.0501C86.151 54.166 85.6768 54.2245 85.1862 54.2245V60.2245C86.1622 60.2245 87.1253 60.1071 88.0698 59.871L86.6145 54.0501ZM89.9389 49.6237C89.8515 48.3711 89.3752 47.1082 88.3244 46.1352L84.2479 50.5378C84.1422 50.4399 84.0571 50.3182 84.0034 50.1965C83.953 50.0823 83.9518 50.0175 83.9534 50.0413L89.9389 49.6237ZM88.3671 46.1756C87.3032 45.1511 85.9726 44.7645 84.7022 44.7645V50.7645C84.7445 50.7645 84.6888 50.7706 84.5742 50.7292C84.4504 50.6845 84.3174 50.6055 84.2052 50.4975L88.3671 46.1756ZM84.7022 44.7645C83.449 44.7645 82.1824 45.1479 81.1421 46.0767L85.1382 50.5523C85.0507 50.6305 84.943 50.6937 84.835 50.7317C84.7332 50.7676 84.6785 50.7645 84.7022 50.7645V44.7645ZM81.1019 46.1132C80.1151 47.027 79.6147 48.1963 79.4294 49.3612L85.3549 50.3039C85.3663 50.2322 85.3745 50.2396 85.3472 50.295C85.3171 50.3562 85.2618 50.4386 85.1784 50.5158L81.1019 46.1132ZM82.3922 52.8325H86.9462V46.8325H82.3922V52.8325ZM92.8281 55.7285L95.2959 54.0228L92.8281 55.7285ZM93.3781 46.9065L95.5282 48.9986L95.5353 48.9914L95.5422 48.9841L93.3781 46.9065ZM101.848 45.7845H104.848V43.4085L102.535 42.8643L101.848 45.7845ZM101.848 56.8945V59.8945H104.848V56.8945H101.848ZM98.9001 56.8945L95.9021 56.7848L95.7883 59.8945H98.9001V56.8945ZM98.9661 55.0905L101.964 55.2002L102.078 52.0905H98.9661V55.0905ZM98.8781 55.0905V52.0905H97.1092L96.253 53.6383L98.8781 55.0905ZM97.4701 56.6745L95.8212 54.1683L95.8058 54.1784L95.7905 54.1888L97.4701 56.6745ZM97.6241 53.7925L99.8439 55.8105L97.6241 53.7925ZM98.8561 51.8565L101.568 53.1387L101.856 52.5299V51.8565H98.8561ZM98.8561 48.1605H101.856V45.8879L99.6683 45.2726L98.8561 48.1605ZM95.4461 48.8645L93.0531 47.0552L93.0389 47.074L93.025 47.093L95.4461 48.8645ZM95.1821 53.7265L92.4844 55.0389L92.4915 55.0536L92.4988 55.0682L95.1821 53.7265ZM95.6221 54.2245C95.5421 54.2245 95.4973 54.2162 95.4791 54.2119C95.4696 54.2096 95.4645 54.2078 95.4626 54.2071C95.4609 54.2064 95.4601 54.206 95.4596 54.2058C95.4591 54.2055 95.4566 54.2042 95.4518 54.2007C95.4469 54.1972 95.438 54.1904 95.4253 54.1786C95.4001 54.1554 95.355 54.1082 95.2959 54.0228L90.3602 57.4343C91.5875 59.2099 93.425 60.2245 95.6221 60.2245V54.2245ZM95.2959 54.0228C95.0698 53.6956 94.7941 53.0089 94.7941 51.6585H88.7941C88.7941 53.7402 89.2077 55.7668 90.3602 57.4343L95.2959 54.0228ZM94.7941 51.6585C94.7941 50.0589 95.1948 49.3413 95.5282 48.9986L91.2279 44.8145C89.4493 46.6424 88.7941 49.0928 88.7941 51.6585H94.7941ZM95.5422 48.9841C95.8769 48.6355 96.513 48.2565 97.9321 48.2565V42.2565C95.3911 42.2565 92.9912 42.9775 91.2139 44.8289L95.5422 48.9841ZM97.9321 48.2565C98.7469 48.2565 99.812 48.3874 101.161 48.7048L102.535 42.8643C100.892 42.4777 99.3466 42.2565 97.9321 42.2565V48.2565ZM98.8481 45.7845V56.8945H104.848V45.7845H98.8481ZM101.848 53.8945H98.9001V59.8945H101.848V53.8945ZM101.898 57.0042L101.964 55.2002L95.9681 54.9808L95.9021 56.7848L101.898 57.0042ZM98.9661 52.0905H98.8781V58.0905H98.9661V52.0905ZM96.253 53.6383C96.0644 53.9792 95.9051 54.1131 95.8212 54.1683L99.1189 59.1808C100.15 58.5026 100.929 57.5805 101.503 56.5427L96.253 53.6383ZM95.7905 54.1888C95.7707 54.2022 95.746 54.2245 95.6221 54.2245V60.2245C96.8768 60.2245 98.0841 59.8802 99.1496 59.1603L95.7905 54.1888ZM96.2821 57.5185C97.8978 57.5185 99.0897 56.6402 99.8439 55.8105L95.4042 51.7745C95.3498 51.8344 95.3864 51.7767 95.5311 51.6984C95.693 51.6108 95.9541 51.5185 96.2821 51.5185V57.5185ZM99.8439 55.8105C100.541 55.0435 101.103 54.1232 101.568 53.1387L96.1438 50.5744C95.8466 51.2032 95.5869 51.5736 95.4042 51.7745L99.8439 55.8105ZM101.856 51.8565V48.1605H95.8561V51.8565H101.856ZM99.6683 45.2726C98.9449 45.0691 98.2025 44.9625 97.4481 44.9625V50.9625C97.6323 50.9625 97.8285 50.9879 98.0438 51.0485L99.6683 45.2726ZM97.4481 44.9625C95.806 44.9625 94.1742 45.5724 93.0531 47.0552L97.839 50.6739C97.811 50.7109 97.7674 50.7591 97.7066 50.808C97.6454 50.8572 97.5809 50.8958 97.5199 50.9232C97.396 50.9791 97.3485 50.9625 97.4481 50.9625V44.9625ZM93.025 47.093C92.0482 48.4279 91.7861 50.0565 91.7861 51.5265H97.7861C97.7861 51.1183 97.8252 50.8549 97.8629 50.703C97.8997 50.5544 97.9232 50.5595 97.8672 50.6361L93.025 47.093ZM91.7861 51.5265C91.7861 52.6863 91.9438 53.9278 92.4844 55.0389L97.8798 52.4141C97.8924 52.4401 97.8658 52.3947 97.8376 52.2381C97.8096 52.0826 97.7861 51.8508 97.7861 51.5265H91.7861ZM92.4988 55.0682C93.1145 56.2996 94.3643 57.5185 96.2821 57.5185V51.5185C96.6505 51.5185 97.06 51.6354 97.408 51.8859C97.7208 52.1111 97.8445 52.3433 97.8653 52.3849L92.4988 55.0682ZM104.848 45.5645V42.5645H101.848V45.5645H104.848ZM107.884 45.5645H110.884V42.5645H107.884V45.5645ZM107.884 47.3245H104.884V57.4585L110.401 48.9576L107.884 47.3245ZM113.714 45.8725L112.022 48.3499L112.057 48.3735L112.092 48.3961L113.714 45.8725ZM115.056 47.5885L112.245 48.6359L114.35 54.2862L117.587 49.1992L115.056 47.5885ZM116.772 45.8285L118.28 48.4221L118.289 48.4167L118.298 48.4113L116.772 45.8285ZM121.81 46.3565L119.602 48.3877L119.623 48.4107L119.645 48.4332L121.81 46.3565ZM122.844 56.8945V59.8945H125.844V56.8945H122.844ZM119.742 56.8945H116.742V59.8945H119.742V56.8945ZM119.302 48.4905L116.989 50.4012L117.034 50.456L117.082 50.5085L119.302 48.4905ZM116.486 48.7325L118.576 50.8844V50.8844L116.486 48.7325ZM115.342 50.6465L112.485 49.7303L112.342 50.1772V50.6465H115.342ZM115.342 56.8945V59.8945H118.342V56.8945H115.342ZM112.24 56.8945H109.24V59.8945H112.24V56.8945ZM111.8 48.4905L109.536 50.4591L109.536 50.4591L111.8 48.4905ZM109.094 48.6005L111.029 50.8934L111.035 50.8881L109.094 48.6005ZM107.95 50.2945L105.165 49.1804L104.95 49.7168V50.2945H107.95ZM107.95 56.8945V59.8945H110.95V56.8945H107.95ZM104.848 56.8945H101.848V59.8945H104.848V56.8945ZM104.848 48.5645H107.884V42.5645H104.848V48.5645ZM104.884 45.5645V47.3245H110.884V45.5645H104.884ZM110.401 48.9576C110.793 48.3526 111.095 48.2565 111.514 48.2565V42.2565C108.882 42.2565 106.764 43.5391 105.367 45.6914L110.401 48.9576ZM111.514 48.2565C111.892 48.2565 112.007 48.3398 112.022 48.3499L115.406 43.3951C114.218 42.584 112.867 42.2565 111.514 42.2565V48.2565ZM112.092 48.3961C112.112 48.4094 112.171 48.4376 112.245 48.6359L117.867 46.5412C117.384 45.2434 116.547 44.1276 115.336 43.349L112.092 48.3961ZM117.587 49.1992C117.92 48.676 118.172 48.4845 118.28 48.4221L115.264 43.235C114.11 43.9059 113.219 44.8877 112.525 45.9779L117.587 49.1992ZM118.298 48.4113C118.438 48.3289 118.635 48.2565 118.972 48.2565V42.2565C117.667 42.2565 116.397 42.5655 115.246 43.2458L118.298 48.4113ZM118.972 48.2565C119.282 48.2565 119.445 48.3033 119.51 48.3288C119.563 48.3492 119.582 48.3653 119.602 48.3877L124.018 44.3254C122.652 42.841 120.828 42.2565 118.972 42.2565V48.2565ZM119.645 48.4332C119.654 48.4426 119.844 48.6163 119.844 49.3705H125.844C125.844 47.5435 125.345 45.7078 123.975 44.2799L119.645 48.4332ZM119.844 49.3705V56.8945H125.844V49.3705H119.844ZM122.844 53.8945H119.742V59.8945H122.844V53.8945ZM122.742 56.8945V49.8545H116.742V56.8945H122.742ZM122.742 49.8545C122.742 48.7832 122.469 47.5145 121.522 46.4725L117.082 50.5085C116.915 50.3245 116.822 50.1347 116.777 49.9945C116.735 49.8654 116.742 49.8054 116.742 49.8545H122.742ZM121.615 46.5799C120.701 45.4738 119.429 44.9845 118.158 44.9845V50.9845C118.049 50.9845 117.842 50.9644 117.593 50.8546C117.337 50.7411 117.131 50.5735 116.989 50.4012L121.615 46.5799ZM118.158 44.9845C116.631 44.9845 115.355 45.6486 114.396 46.5807L118.576 50.8844C118.624 50.8384 118.606 50.8689 118.514 50.91C118.413 50.955 118.286 50.9845 118.158 50.9845V44.9845ZM114.396 46.5807C113.482 47.4677 112.864 48.551 112.485 49.7303L118.199 51.5628C118.319 51.1874 118.463 50.9946 118.576 50.8844L114.396 46.5807ZM112.342 50.6465V56.8945H118.342V50.6465H112.342ZM115.342 53.8945H112.24V59.8945H115.342V53.8945ZM115.24 56.8945V49.8545H109.24V56.8945H115.24ZM115.24 49.8545C115.24 48.7667 114.952 47.5439 114.064 46.522L109.536 50.4591C109.399 50.3015 109.317 50.1369 109.275 50.0055C109.235 49.8833 109.24 49.8215 109.24 49.8545H115.24ZM114.064 46.522C113.15 45.4706 111.905 44.9845 110.634 44.9845V50.9845C110.523 50.9845 110.327 50.964 110.094 50.8631C109.855 50.7595 109.667 50.609 109.536 50.4591L114.064 46.522ZM110.634 44.9845C109.263 44.9845 108.082 45.5246 107.153 46.313L111.035 50.8881C111.066 50.8618 111.041 50.89 110.956 50.924C110.865 50.9603 110.752 50.9845 110.634 50.9845V44.9845ZM107.159 46.3077C106.222 47.0987 105.59 48.1174 105.165 49.1804L110.735 51.4087C110.897 51.005 111.027 50.8943 111.029 50.8934L107.159 46.3077ZM104.95 50.2945V56.8945H110.95V50.2945H104.95ZM107.95 53.8945H104.848V59.8945H107.95V53.8945ZM107.848 56.8945V45.5645H101.848V56.8945H107.848Z" fill="white"/>
</svg>
